HIERARCHY
ROOT root
{
	OFFSET 0.000000 0.054209 0.736570
	CHANNELS 6 Xposition Yposition Zposition Xrotation Yrotation Zrotation
	JOINT spine04
	{
		OFFSET 0.000000 -0.030951 0.078753
		CHANNELS 6 Xposition Yposition Zposition Xrotation Yrotation Zrotation
		JOINT spine02
		{
			OFFSET 0.000000 -0.000238 0.104623
			CHANNELS 6 Xposition Yposition Zposition Xrotation Yrotation Zrotation
			JOINT spine01
			{
				OFFSET 0.000000 0.017421 0.109292
				CHANNELS 3 Xrotation Yrotation Zrotation
				JOINT neck01
				{
					OFFSET 0.000000 -0.049753 0.167208
					CHANNELS 6 Xposition Yposition Zposition Xrotation Yrotation Zrotation
					JOINT neck02
					{
						OFFSET 0.000000 0.005512 0.021216
						CHANNELS 3 Xrotation Yrotation Zrotation
						JOINT jaw
						{
							OFFSET 0.000000 -0.043573 0.063270
							CHANNELS 6 Xposition Yposition Zposition Xrotation Yrotation Zrotation
							End Site
							{
								OFFSET 0.000000 -0.008973 0.006556
							}
						}
						JOINT eye.L
						{
							OFFSET 0.023674 -0.098122 0.090003
							CHANNELS 3 Xrotation Yrotation Zrotation
							End Site
							{
								OFFSET 0.001819 -0.030370 -0.004421
							}
						}
						JOINT orbicularis03.L
						{
							OFFSET 0.023674 -0.098122 0.090003
							CHANNELS 3 Xrotation Yrotation Zrotation
							End Site
							{
								OFFSET 0.001761 -0.029014 0.005250
							}
						}
						JOINT eye.R
						{
							OFFSET -0.023674 -0.098122 0.090003
							CHANNELS 3 Xrotation Yrotation Zrotation
							End Site
							{
								OFFSET -0.001819 -0.030370 -0.004421
							}
						}
						JOINT orbicularis03.R
						{
							OFFSET -0.023674 -0.098122 0.090003
							CHANNELS 3 Xrotation Yrotation Zrotation
							End Site
							{
								OFFSET -0.001761 -0.029014 0.005250
							}
						}
						End Site
						{
							OFFSET 0.000000 0.005512 0.021217
						}
					}
				}
				JOINT clavicle.R
				{
					OFFSET -0.018367 -0.058464 0.107155
					CHANNELS 6 Xposition Yposition Zposition Xrotation Yrotation Zrotation
					JOINT upperarm01.R
					{
						OFFSET -0.132020 0.003642 -0.024313
						CHANNELS 6 Xposition Yposition Zposition Xrotation Yrotation Zrotation
						JOINT lowerarm01.R
						{
							OFFSET -0.133638 0.001770 -0.153088
							CHANNELS 6 Xposition Yposition Zposition Xrotation Yrotation Zrotation
							JOINT wrist.R
							{
								OFFSET -0.108574 -0.154815 -0.103768
								CHANNELS 6 Xposition Yposition Zposition Xrotation Yrotation Zrotation
								JOINT finger2-1.R
								{
									OFFSET -0.024321 -0.084906 -0.032804
									CHANNELS 3 Xrotation Yrotation Zrotation
									JOINT finger2-2.R
									{
										OFFSET -0.002927 -0.018838 -0.012653
										CHANNELS 3 Xrotation Yrotation Zrotation
										JOINT finger2-3.R
										{
											OFFSET 0.000460 -0.015088 -0.013862
											CHANNELS 3 Xrotation Yrotation Zrotation
											End Site
											{
												OFFSET 0.003042 -0.016083 -0.016987
											}
										}
									}
								}
								JOINT finger3-1.R
								{
									OFFSET -0.038828 -0.069770 -0.043126
									CHANNELS 3 Xrotation Yrotation Zrotation
									JOINT finger3-2.R
									{
										OFFSET -0.006387 -0.018854 -0.022184
										CHANNELS 3 Xrotation Yrotation Zrotation
										JOINT finger3-3.R
										{
											OFFSET -0.002379 -0.015757 -0.018306
											CHANNELS 3 Xrotation Yrotation Zrotation
											End Site
											{
												OFFSET 0.000156 -0.013802 -0.019326
											}
										}
									}
								}
								JOINT finger4-1.R
								{
									OFFSET -0.045586 -0.054771 -0.050312
									CHANNELS 3 Xrotation Yrotation Zrotation
									JOINT finger4-2.R
									{
										OFFSET -0.008217 -0.013209 -0.021152
										CHANNELS 3 Xrotation Yrotation Zrotation
										JOINT finger4-3.R
										{
											OFFSET -0.003838 -0.011895 -0.018031
											CHANNELS 3 Xrotation Yrotation Zrotation
											End Site
											{
												OFFSET -0.002024 -0.010563 -0.020894
											}
										}
									}
								}
								JOINT finger5-1.R
								{
									OFFSET -0.046820 -0.037780 -0.058682
									CHANNELS 3 Xrotation Yrotation Zrotation
									JOINT finger5-2.R
									{
										OFFSET -0.005233 -0.007322 -0.016539
										CHANNELS 3 Xrotation Yrotation Zrotation
										JOINT finger5-3.R
										{
											OFFSET -0.001524 -0.005484 -0.012548
											CHANNELS 3 Xrotation Yrotation Zrotation
											End Site
											{
												OFFSET -0.002248 -0.006725 -0.016024
											}
										}
									}
								}
								JOINT finger1-1.R
								{
									OFFSET -0.000927 -0.039280 -0.005363
									CHANNELS 3 Xrotation Yrotation Zrotation
									JOINT finger1-2.R
									{
										OFFSET 0.018386 -0.018805 -0.006895
										CHANNELS 3 Xrotation Yrotation Zrotation
										JOINT finger1-3.R
										{
											OFFSET 0.010991 -0.028095 -0.011249
											CHANNELS 3 Xrotation Yrotation Zrotation
											End Site
											{
												OFFSET 0.004840 -0.019091 -0.014527
											}
										}
									}
								}
							}
						}
					}
				}
				JOINT clavicle.L
				{
					OFFSET 0.018367 -0.058464 0.107155
					CHANNELS 6 Xposition Yposition Zposition Xrotation Yrotation Zrotation
					JOINT upperarm01.L
					{
						OFFSET 0.132020 0.003642 -0.024313
						CHANNELS 6 Xposition Yposition Zposition Xrotation Yrotation Zrotation
						JOINT lowerarm01.L
						{
							OFFSET 0.133638 0.001770 -0.153088
							CHANNELS 6 Xposition Yposition Zposition Xrotation Yrotation Zrotation
							JOINT wrist.L
							{
								OFFSET 0.108574 -0.154815 -0.103768
								CHANNELS 6 Xposition Yposition Zposition Xrotation Yrotation Zrotation
								JOINT finger2-1.L
								{
									OFFSET 0.024321 -0.084906 -0.032804
									CHANNELS 3 Xrotation Yrotation Zrotation
									JOINT finger2-2.L
									{
										OFFSET 0.002927 -0.018837 -0.012653
										CHANNELS 3 Xrotation Yrotation Zrotation
										JOINT finger2-3.L
										{
											OFFSET -0.000460 -0.015088 -0.013862
											CHANNELS 3 Xrotation Yrotation Zrotation
											End Site
											{
												OFFSET -0.003042 -0.016083 -0.016987
											}
										}
									}
								}
								JOINT finger3-1.L
								{
									OFFSET 0.038828 -0.069770 -0.043126
									CHANNELS 3 Xrotation Yrotation Zrotation
									JOINT finger3-2.L
									{
										OFFSET 0.006387 -0.018854 -0.022184
										CHANNELS 3 Xrotation Yrotation Zrotation
										JOINT finger3-3.L
										{
											OFFSET 0.002379 -0.015757 -0.018306
											CHANNELS 3 Xrotation Yrotation Zrotation
											End Site
											{
												OFFSET -0.000156 -0.013802 -0.019326
											}
										}
									}
								}
								JOINT finger4-1.L
								{
									OFFSET 0.045586 -0.054771 -0.050312
									CHANNELS 3 Xrotation Yrotation Zrotation
									JOINT finger4-2.L
									{
										OFFSET 0.008217 -0.013209 -0.021152
										CHANNELS 3 Xrotation Yrotation Zrotation
										JOINT finger4-3.L
										{
											OFFSET 0.003838 -0.011894 -0.018031
											CHANNELS 3 Xrotation Yrotation Zrotation
											End Site
											{
												OFFSET 0.002024 -0.010563 -0.020894
											}
										}
									}
								}
								JOINT finger5-1.L
								{
									OFFSET 0.046820 -0.037780 -0.058682
									CHANNELS 3 Xrotation Yrotation Zrotation
									JOINT finger5-2.L
									{
										OFFSET 0.005233 -0.007322 -0.016539
										CHANNELS 3 Xrotation Yrotation Zrotation
										JOINT finger5-3.L
										{
											OFFSET 0.001524 -0.005484 -0.012548
											CHANNELS 3 Xrotation Yrotation Zrotation
											End Site
											{
												OFFSET 0.002248 -0.006725 -0.016024
											}
										}
									}
								}
								JOINT finger1-1.L
								{
									OFFSET 0.000927 -0.039280 -0.005363
									CHANNELS 3 Xrotation Yrotation Zrotation
									JOINT finger1-2.L
									{
										OFFSET -0.018386 -0.018805 -0.006895
										CHANNELS 3 Xrotation Yrotation Zrotation
										JOINT finger1-3.L
										{
											OFFSET -0.010991 -0.028095 -0.011249
											CHANNELS 3 Xrotation Yrotation Zrotation
											End Site
											{
												OFFSET -0.004839 -0.019091 -0.014527
											}
										}
									}
								}
							}
						}
					}
				}
			}
		}
	}
	JOINT upperleg01.R
	{
		OFFSET -0.087495 -0.048056 0.004242
		CHANNELS 6 Xposition Yposition Zposition Xrotation Yrotation Zrotation
		JOINT lowerleg01.R
		{
			OFFSET -0.034522 -0.027831 -0.333803
			CHANNELS 6 Xposition Yposition Zposition Xrotation Yrotation Zrotation
			JOINT foot.R
			{
				OFFSET -0.037458 0.009413 -0.349633
				CHANNELS 3 Xrotation Yrotation Zrotation
				JOINT toe1-1.R
				{
					OFFSET -0.003290 -0.101211 -0.050981
					CHANNELS 6 Xposition Yposition Zposition Xrotation Yrotation Zrotation
					End Site
					{
						OFFSET 0.000524 -0.066142 0.003009
					}
				}
			}
		}
	}
	JOINT upperleg01.L
	{
		OFFSET 0.087495 -0.048056 0.004242
		CHANNELS 6 Xposition Yposition Zposition Xrotation Yrotation Zrotation
		JOINT lowerleg01.L
		{
			OFFSET 0.034522 -0.027831 -0.333803
			CHANNELS 6 Xposition Yposition Zposition Xrotation Yrotation Zrotation
			JOINT foot.L
			{
				OFFSET 0.037458 0.009412 -0.349633
				CHANNELS 3 Xrotation Yrotation Zrotation
				JOINT toe1-1.L
				{
					OFFSET 0.003290 -0.101211 -0.050981
					CHANNELS 6 Xposition Yposition Zposition Xrotation Yrotation Zrotation
					End Site
					{
						OFFSET -0.000524 -0.066142 0.003009
					}
				}
			}
		}
	}
}
MOTION
Frames: 7
Frame Time:	0.016667
0 0.0542 0.7366 0 0 0 0 -0.0506 0.0788 0 0 0 0 -0.0232 0.1046 0 0 0 0 0 0 0 -0.0498 0.1672 0 0 0 0 0 0 0 -0.0436 0.0633 0 0 0 0 0 0 0 0 0 0 0 0 0 0 0 -0.0184 -0.0585 0.1072 0 0 0 -0.1356 -0.0037 -0.0169 0 0 0 -0.1336 0.0018 -0.1531 0 0 0 -0.1086 -0.1548 -0.1038 0 0 0 0 0 0 0 0 0 0 0 0 0 0 0 0 0 0 0 0 0 0 0 0 0 0 0 0 0 0 0 0 0 0 0 0 0 0 0 0 0 0 0 0 0 0 0 0 0.0184 -0.0585 0.1072 0 0 0 0.1356 -0.0037 -0.0169 0 0 0 0.1336 0.0018 -0.1531 0 0 0 0.1086 -0.1548 -0.1038 0 0 0 0 0 0 0 0 0 0 0 0 0 0 0 0 0 0 0 0 0 0 0 0 0 0 0 0 0 0 0 0 0 0 0 0 0 0 0 0 0 0 0 0 0 0 0 0 -0.0875 -0.0481 0.0042 0 0 0 -0.0345 -0.0278 -0.3338 0 0 0 0 0 0 -0.0033 -0.1012 -0.051 0 0 0 0.0875 -0.0481 0.0042 0 0 0 0.0345 -0.0278 -0.3338 0 0 0 0 0 0 0.0033 -0.1012 -0.051 0 0 0 
0.3462 -0.781 0.5733 15.171 -0.0514 -165.5107 0.0002 -0.0365 0.0737 4.3412 0.2725 -0.6033 0.0002 -0.0059 0.1067 25.5872 -1.0631 -0.4373 0 0 0 0 -0.042 0.1608 6.3122 -1.1928 -5.6862 -21.3958 -0.3178 -6.9573 0 -0.0436 0.0633 0 0 0 4.0566 -0.0952 -4.8174 0 0 0 4.0565 -0.0952 -4.8174 0 0 0 -0.0184 -0.0571 0.1062 0.062 -4.5409 -1.3957 -0.1356 -0.0037 -0.0169 2.1403 -2.3811 6.7365 -0.1336 0.0018 -0.1531 -45.3007 -8.3663 50.8456 -0.1085 -0.1548 -0.1037 25.2334 33.8368 -15.0419 45.9928 -24.4145 36.4179 48.3238 -17.6383 41.5065 55.1584 -16.5051 46.7313 19.6585 -25.3895 26.1652 39.4114 -31.442 36.6649 37.0744 -31.2306 35.4024 20.3072 -33.1893 28.4963 42.6312 -40.6854 37.2047 39.9837 -41.5004 37.7681 -7.1055 -17.5214 7.5195 13.9745 -25.5459 5.6235 16.7742 -30.1518 9.5259 -10.1501 -35.967 -28.7928 16.0464 15.5162 -40.5498 10.5595 22.6999 -51.9633 0.0184 -0.0571 0.1062 -0.7542 3.2439 -3.4457 0.1356 -0.0037 -0.0169 4.1679 -2.1242 -5.3237 0.1335 0.0018 -0.1531 -45.0285 14.6343 -49.4098 0.1086 -0.1548 -0.1037 25.5076 -37.8164 8.6407 46.4678 24.0749 -36.3675 50.1121 16.9692 -43.57 55.0473 16.1169 -47.1432 36.4926 30.5485 -42.8099 55.3977 33.0714 -53.7375 53.3462 33.2387 -52.7114 31.6753 38.0388 -39.0599 54.2315 43.0702 -49.3147 52.1182 43.968 -50.2419 29.4322 46.4684 -38.5073 49.2771 49.8148 -41.0362 57.5565 51.3714 -50.3803 -3.3217 29.0339 28.8243 20.0309 -14.3956 39.8643 14.0503 -20.2544 51.6687 -0.0875 -0.0481 0.0042 -40.4116 2.6912 -0.6179 -0.0345 -0.0278 -0.3338 38.3455 -0.7481 -3.9924 49.6963 -16.6333 9.1447 -0.0033 -0.1012 -0.051 -18.3767 0 0 0.0875 -0.0481 0.0042 -49.3017 -5.7151 -3.4594 0.0345 -0.0278 -0.3338 48.8244 0.1988 5.4179 53.6793 10.2484 -4.9311 0.0033 -0.1012 -0.051 -18.9243 0 0 
0.3462 -0.781 0.5733 15.171 -0.0514 -165.5107 0.0002 -0.0365 0.0737 4.3412 0.2725 -0.6033 0.0002 -0.0059 0.1067 25.5872 -1.0631 -0.4373 0 0 0 0 -0.042 0.1608 6.3122 -1.1928 -5.6862 -21.3958 -0.3178 -6.9573 0 -0.0436 0.0633 0 0 0 4.0566 -0.0951 -4.8174 0 0 0 4.0566 -0.0952 -4.8174 0 0 0 -0.0184 -0.0571 0.1062 0.062 -4.5409 -1.3957 -0.1356 -0.0037 -0.0169 2.1403 -2.3811 6.7365 -0.1336 0.0018 -0.1531 -45.3007 -8.3663 50.8455 -0.1085 -0.1548 -0.1037 25.2334 33.8368 -15.0418 45.9928 -24.4145 36.4179 48.3238 -17.6383 41.5065 55.1583 -16.5051 46.7313 19.6584 -25.3896 26.1652 39.4114 -31.442 36.6649 37.0744 -31.2306 35.4024 20.3072 -33.1893 28.4962 42.6312 -40.6854 37.2048 39.9837 -41.5004 37.7681 -7.1055 -17.5214 7.5195 13.9745 -25.5459 5.6235 16.7742 -30.1518 9.5259 -10.1501 -35.967 -28.7928 16.0465 15.5162 -40.5498 10.5595 22.7 -51.9633 0.0184 -0.0571 0.1062 -0.7542 3.2439 -3.4457 0.1356 -0.0037 -0.0169 4.1679 -2.1242 -5.3237 0.1335 0.0018 -0.1531 -45.0285 14.6343 -49.4098 0.1086 -0.1548 -0.1037 25.5076 -37.8163 8.6407 46.4678 24.0749 -36.3674 50.1122 16.9692 -43.57 55.0473 16.1168 -47.1432 36.4926 30.5485 -42.8099 55.3977 33.0714 -53.7375 53.3462 33.2387 -52.7113 31.6753 38.0388 -39.0598 54.2315 43.0702 -49.3147 52.1182 43.968 -50.2418 29.4322 46.4684 -38.5073 49.277 49.8147 -41.0362 57.5566 51.3714 -50.3803 -3.3217 29.0339 28.8243 20.0309 -14.3956 39.8642 14.0503 -20.2544 51.6687 -0.0875 -0.0481 0.0042 -40.4116 2.6912 -0.6179 -0.0345 -0.0278 -0.3338 38.3455 -0.7481 -3.9924 49.6962 -16.6333 9.1447 -0.0033 -0.1012 -0.051 -18.3767 0 0 0.0875 -0.0481 0.0042 -49.3017 -5.7151 -3.4594 0.0345 -0.0278 -0.3338 48.8244 0.1988 5.4179 53.6793 10.2484 -4.9311 0.0033 -0.1012 -0.051 -18.9243 0 0 
0.3462 -0.781 0.5733 15.171 -0.0514 -165.5107 0.0002 -0.0365 0.0737 4.3412 0.2725 -0.6033 0.0002 -0.0059 0.1067 25.5872 -1.0631 -0.4373 0 0 0 0 -0.042 0.1608 6.3122 -1.1928 -5.6862 -21.3958 -0.3178 -6.9573 0 -0.0436 0.0633 0 0 0 4.0566 -0.0951 -4.8174 0 0 0 4.0565 -0.0952 -4.8174 0 0 0 -0.0184 -0.0571 0.1062 0.062 -4.5409 -1.3957 -0.1356 -0.0037 -0.0169 2.1403 -2.3811 6.7365 -0.1336 0.0018 -0.1531 -45.3007 -8.3663 50.8456 -0.1085 -0.1548 -0.1037 25.2334 33.8368 -15.0419 45.9928 -24.4145 36.4179 48.3238 -17.6383 41.5064 55.1583 -16.5051 46.7313 19.6585 -25.3896 26.1652 39.4114 -31.442 36.6648 37.0744 -31.2306 35.4024 20.3072 -33.1893 28.4962 42.6312 -40.6854 37.2047 39.9837 -41.5004 37.7681 -7.1055 -17.5214 7.5195 13.9745 -25.5459 5.6234 16.7742 -30.1518 9.5259 -10.1501 -35.967 -28.7928 16.0465 15.5162 -40.5498 10.5596 22.6999 -51.9632 0.0184 -0.0571 0.1062 -0.7542 3.2439 -3.4457 0.1356 -0.0037 -0.0169 4.1679 -2.1242 -5.3237 0.1335 0.0018 -0.1531 -45.0285 14.6343 -49.4098 0.1086 -0.1548 -0.1037 25.5076 -37.8163 8.6407 46.4678 24.075 -36.3675 50.1122 16.9692 -43.57 55.0473 16.1169 -47.1432 36.4926 30.5485 -42.8099 55.3977 33.0714 -53.7375 53.3461 33.2387 -52.7114 31.6753 38.0388 -39.0599 54.2315 43.0702 -49.3147 52.1182 43.968 -50.2419 29.4323 46.4684 -38.5073 49.2771 49.8148 -41.0362 57.5566 51.3714 -50.3803 -3.3217 29.0339 28.8243 20.0309 -14.3956 39.8642 14.0503 -20.2544 51.6687 -0.0875 -0.0481 0.0042 -40.4116 2.6912 -0.6179 -0.0345 -0.0278 -0.3338 38.3456 -0.7481 -3.9924 49.6962 -16.6333 9.1447 -0.0033 -0.1012 -0.051 -18.3767 0 0 0.0875 -0.0481 0.0042 -49.3017 -5.7151 -3.4594 0.0345 -0.0278 -0.3338 48.8244 0.1988 5.4179 53.6793 10.2484 -4.9311 0.0033 -0.1012 -0.051 -18.9243 0 0 
0.3462 -0.781 0.5733 15.171 -0.0514 -165.5107 0.0002 -0.0365 0.0737 4.3412 0.2725 -0.6033 0.0002 -0.0059 0.1067 25.5872 -1.0631 -0.4373 0 0 0 0 -0.042 0.1608 6.3122 -1.1928 -5.6862 -21.3958 -0.3178 -6.9573 0 -0.0436 0.0633 0 0 0 4.0566 -0.0951 -4.8174 0 0 0 4.0566 -0.0952 -4.8174 0 0 0 -0.0184 -0.0571 0.1062 0.062 -4.5409 -1.3957 -0.1356 -0.0037 -0.0169 2.1403 -2.3811 6.7365 -0.1336 0.0018 -0.1531 -45.3007 -8.3663 50.8456 -0.1085 -0.1548 -0.1037 25.2334 33.8368 -15.0419 45.9928 -24.4145 36.4179 48.3238 -17.6383 41.5064 55.1583 -16.5051 46.7313 19.6585 -25.3896 26.1652 39.4114 -31.442 36.6648 37.0744 -31.2306 35.4024 20.3072 -33.1893 28.4962 42.6312 -40.6854 37.2047 39.9837 -41.5004 37.7681 -7.1055 -17.5214 7.5195 13.9745 -25.5459 5.6234 16.7742 -30.1518 9.5259 -10.1501 -35.967 -28.7928 16.0465 15.5162 -40.5498 10.5596 22.6999 -51.9632 0.0184 -0.0571 0.1062 -0.7542 3.2439 -3.4457 0.1356 -0.0037 -0.0169 4.1679 -2.1242 -5.3237 0.1335 0.0018 -0.1531 -45.0285 14.6343 -49.4098 0.1086 -0.1548 -0.1037 25.5076 -37.8164 8.6407 46.4678 24.075 -36.3674 50.1122 16.9692 -43.57 55.0473 16.1169 -47.1432 36.4926 30.5485 -42.8099 55.3977 33.0714 -53.7375 53.3461 33.2387 -52.7114 31.6753 38.0388 -39.0599 54.2315 43.0702 -49.3146 52.1182 43.968 -50.2419 29.4322 46.4684 -38.5073 49.2771 49.8148 -41.0363 57.5566 51.3715 -50.3803 -3.3217 29.0339 28.8243 20.0309 -14.3956 39.8642 14.0503 -20.2544 51.6687 -0.0875 -0.0481 0.0042 -40.4116 2.6912 -0.6179 -0.0345 -0.0278 -0.3338 38.3455 -0.7481 -3.9924 49.6962 -16.6333 9.1447 -0.0033 -0.1012 -0.051 -18.3767 0 0 0.0875 -0.0481 0.0042 -49.3017 -5.7151 -3.4594 0.0345 -0.0278 -0.3338 48.8244 0.1988 5.4179 53.6793 10.2484 -4.9311 0.0033 -0.1012 -0.051 -18.9243 0 0 
0.3462 -0.781 0.5733 15.171 -0.0514 -165.5107 0.0002 -0.0365 0.0737 4.3412 0.2725 -0.6033 0.0002 -0.0059 0.1067 25.5872 -1.0631 -0.4373 0 0 0 0 -0.042 0.1608 6.3122 -1.1928 -5.6862 -21.3958 -0.3178 -6.9573 0 -0.0436 0.0633 0 0 0 4.0566 -0.0951 -4.8174 0 0 0 4.0565 -0.0952 -4.8174 0 0 0 -0.0184 -0.0571 0.1062 0.062 -4.5409 -1.3957 -0.1356 -0.0037 -0.0169 2.1403 -2.3811 6.7365 -0.1336 0.0018 -0.1531 -45.3007 -8.3663 50.8456 -0.1085 -0.1548 -0.1037 25.2334 33.8368 -15.0419 45.9928 -24.4145 36.4179 48.3238 -17.6383 41.5064 55.1583 -16.5051 46.7313 19.6585 -25.3896 26.1652 39.4114 -31.442 36.6648 37.0744 -31.2306 35.4024 20.3072 -33.1893 28.4962 42.6312 -40.6854 37.2047 39.9837 -41.5004 37.7681 -7.1055 -17.5214 7.5195 13.9745 -25.5459 5.6234 16.7742 -30.1518 9.5259 -10.1501 -35.967 -28.7928 16.0465 15.5162 -40.5498 10.5596 22.6999 -51.9632 0.0184 -0.0571 0.1062 -0.7542 3.2439 -3.4457 0.1356 -0.0037 -0.0169 4.1679 -2.1242 -5.3237 0.1335 0.0018 -0.1531 -45.0285 14.6343 -49.4098 0.1086 -0.1548 -0.1037 25.5076 -37.8163 8.6407 46.4678 24.075 -36.3674 50.1122 16.9692 -43.57 55.0473 16.1169 -47.1433 36.4926 30.5485 -42.8099 55.3977 33.0714 -53.7375 53.3461 33.2387 -52.7114 31.6753 38.0388 -39.0598 54.2315 43.0702 -49.3147 52.1182 43.968 -50.2419 29.4322 46.4684 -38.5073 49.2771 49.8148 -41.0362 57.5566 51.3715 -50.3803 -3.3217 29.0339 28.8243 20.0309 -14.3956 39.8642 14.0503 -20.2544 51.6687 -0.0875 -0.0481 0.0042 -40.4116 2.6912 -0.6179 -0.0345 -0.0278 -0.3338 38.3456 -0.7481 -3.9924 49.6962 -16.6333 9.1447 -0.0033 -0.1012 -0.051 -18.3767 0 0 0.0875 -0.0481 0.0042 -49.3017 -5.7151 -3.4594 0.0345 -0.0278 -0.3338 48.8244 0.1988 5.4179 53.6793 10.2484 -4.9311 0.0033 -0.1012 -0.051 -18.9243 0 0 
0.3462 -0.781 0.5733 15.171 -0.0514 -165.5107 0.0002 -0.0365 0.0737 4.3412 0.2725 -0.6033 0.0002 -0.0059 0.1067 25.5872 -1.0631 -0.4373 0 0 0 0 -0.042 0.1608 6.3122 -1.1928 -5.6862 -21.3958 -0.3178 -6.9573 0 -0.0436 0.0633 0 0 0 4.0566 -0.0951 -4.8174 0 0 0 4.0566 -0.0952 -4.8174 0 0 0 -0.0184 -0.0571 0.1062 0.062 -4.5409 -1.3957 -0.1356 -0.0037 -0.0169 2.1403 -2.3811 6.7365 -0.1336 0.0018 -0.1531 -45.3007 -8.3663 50.8456 -0.1085 -0.1548 -0.1037 25.2334 33.8368 -15.0419 45.9928 -24.4145 36.4179 48.3238 -17.6383 41.5064 55.1583 -16.5051 46.7313 19.6585 -25.3896 26.1652 39.4114 -31.442 36.6648 37.0744 -31.2306 35.4024 20.3072 -33.1893 28.4962 42.6312 -40.6854 37.2047 39.9837 -41.5004 37.7681 -7.1055 -17.5214 7.5195 13.9745 -25.5459 5.6234 16.7742 -30.1518 9.5259 -10.1501 -35.967 -28.7928 16.0465 15.5162 -40.5498 10.5596 22.6999 -51.9632 0.0184 -0.0571 0.1062 -0.7542 3.2439 -3.4457 0.1356 -0.0037 -0.0169 4.1679 -2.1242 -5.3237 0.1335 0.0018 -0.1531 -45.0285 14.6343 -49.4098 0.1086 -0.1548 -0.1037 25.5076 -37.8164 8.6407 46.4678 24.075 -36.3674 50.1122 16.9692 -43.57 55.0473 16.1169 -47.1432 36.4926 30.5485 -42.8099 55.3977 33.0714 -53.7375 53.3461 33.2387 -52.7114 31.6753 38.0388 -39.0599 54.2315 43.0702 -49.3146 52.1182 43.968 -50.2419 29.4322 46.4684 -38.5073 49.2771 49.8148 -41.0363 57.5566 51.3715 -50.3803 -3.3217 29.0339 28.8243 20.0309 -14.3956 39.8642 14.0503 -20.2544 51.6687 -0.0875 -0.0481 0.0042 -40.4116 2.6912 -0.6179 -0.0345 -0.0278 -0.3338 38.3455 -0.7481 -3.9924 49.6962 -16.6333 9.1447 -0.0033 -0.1012 -0.051 -18.3767 0 0 0.0875 -0.0481 0.0042 -49.3017 -5.7151 -3.4594 0.0345 -0.0278 -0.3338 48.8244 0.1988 5.4179 53.6793 10.2484 -4.9311 0.0033 -0.1012 -0.051 -18.9243 0 0 
